<svg xmlns="http://www.w3.org/2000/svg" viewBox="0 0 256 256" fill="#6B7280">
  <path d="M119.617 202.467c-2.235.065-4.5.099-6.793.099-48.836 0-91.073-28.533-110.793-69.988l75.937 90.666c1.587-6.73 3.24-13.413 4.93-20.097 12.697-0.561 15.723-.68 36.719-.68zM136.664 200.083c-.012.015-.03.033-.044.046l-72.72-86.742c9.84-4.01 20.52-6.387 31.848-6.387 25.438 0 47.972 11.544 63.025 29.695l-22.109 63.388zM149.824 191.778l21.018-60.288c15.733 16.737 25.42 39.228 25.42 63.839 0 12.646-2.593 24.677-7.272 35.605l-39.166-39.156zM215.544 153.253c-2.34 43.05-25.557 80.303-58.914 98.574l54.628-54.641c2.793-14.386 4.286-29.297 4.286-44.574 0-.471-.007-.94-.021-1.408l.021.049zM206.019 125.138c-9.506-35.84-37.23-64.306-72.674-75.056l72.674 75.056zM123.321 41.8c3.756-.279 7.564-.424 11.414-.424 50.713 0 94.46 30.273 114.021 73.725l-78.463-81.142c-15.739 2.65-30.41 7.58-43.972 14.841l-3-7z"/>
</svg>