<svg xmlns="http://www.w3.org/2000/svg" viewBox="0 0 256 289" fill="#6B7280">
  <path d="M127.999 288.463c-3.975 0-7.685-1.06-11.061-2.652l-35.098-20.767c-5.29-2.973-2.652-4.033-1.061-4.563 7.155-2.652 8.483-3.183 15.638-7.685.795-.53 1.856-.265 2.652.265l26.883 15.903c.993.53 2.387.53 3.116 0l104.644-60.348c.993-.53 1.59-1.59 1.59-2.652V83.094c0-1.06-.597-2.121-1.59-2.652L129.589 19.829c-.993-.53-2.123-.53-3.116 0L21.829 80.177c-.993.53-1.59 1.856-1.59 2.652v120.547c0 1.06.597 2.121 1.59 2.652l28.739 16.698c15.638 7.95 25.292-1.325 25.292-10.609V92.371c0-1.59 1.326-2.917 2.917-2.917h12.454c1.59 0 2.917 1.326 2.917 2.917v119.486c0 20.767-11.326 32.622-31.03 32.622-6.096 0-10.874 0-24.231-6.626l-27.416-15.903C4.033 218.704 0 211.019 0 202.804V82.257c0-8.215 4.033-15.9 10.609-19.934L115.253 1.975c6.31-3.71 14.79-3.71 21.1 0l104.644 60.348C247.502 66.357 256 74.042 256 82.257v120.547c0 8.215-8.498 15.9-15.033 19.934L136.323 283.086c-3.376 1.855-7.42 2.917-11.324 2.917v-.54z"/>
  <path d="M161.071 196.177c-45.312 0-54.496-20.767-54.496-38.276 0-1.59 1.326-2.917 2.917-2.917h12.719c1.458 0 2.652 1.061 2.652 2.386 1.856 12.189 7.155 18.285 36.208 18.285 22.375 0 31.824-5.034 31.824-16.963 0-6.891-2.652-11.925-37.269-15.372-28.739-2.917-46.512-9.278-46.512-32.357 0-21.365 18.02-34.059 48.234-34.059 33.945 0 50.729 11.79 52.85 37.269.132.795-.265 1.59-.795 2.121-.53.53-1.326.795-2.121.795h-12.719c-1.326 0-2.386-.993-2.652-2.386-2.917-13.249-10.609-17.548-34.324-17.548-25.292 0-28.209 8.748-28.209 15.372 0 7.685 3.71 9.807 36.208 14.046 32.093 4.24 47.447 10.074 47.447 33.681-.265 23.37-19.669 36.474-53.879 36.474z"/>
</svg>