<svg xmlns="http://www.w3.org/2000/svg" viewBox="0 0 512 512" fill="#6B7280">
  <path d="M0 256v256h512V0H0v256zm178.6-235.1c8.1-2.5 17.9-3.8 29.4-3.8 11.5 0 21.3 1.3 29.4 3.8 8.1 2.5 14.9 6.1 20.5 10.8 5.6 4.7 9.8 10.4 12.7 17.1 2.9 6.7 4.3 14 4.3 21.9v80.5h-31.9v-79c0-4.7-.8-8.8-2.4-12.3-1.6-3.5-3.8-6.4-6.6-8.7-2.8-2.3-6.1-4-9.9-5.1-3.8-1.1-7.9-1.7-12.3-1.7-4.4 0-8.5.6-12.3 1.7-3.8 1.1-7.1 2.8-9.9 5.1-2.8 2.3-5 5.2-6.6 8.7-1.6 3.5-2.4 7.6-2.4 12.3v79h-31.9V168.9c0-7.9 1.4-15.2 4.3-21.9 2.9-6.7 7.1-12.4 12.7-17.1 5.6-4.7 12.4-8.3 20.5-10.8zM292.9 217.7h60.3V246h-60.3v41.9c0 7.9 1.7 13.6 5.1 17.1 3.4 3.5 8.5 5.3 15.3 5.3 3.8 0 7.4-.4 10.8-1.2 3.4-.8 6.7-2 9.9-3.6v25.2c-3.8 1.9-8.1 3.4-12.9 4.5-4.8 1.1-10.1 1.7-15.9 1.7-7.9 0-14.8-1.1-20.7-3.3-5.9-2.2-10.8-5.4-14.7-9.6-3.9-4.2-6.9-9.3-8.9-15.3-2-6-3-12.7-3-20.1V217.7z"/>
</svg>